/* XPM */
static char * mincoin32_xpm[] = {
"32 32 344 2",
"  	c None",
". 	c #4B4E52",
"+ 	c #6B6F74",
"@ 	c #81868B",
"# 	c #8D9297",
"$ 	c #95999D",
"% 	c #94979B",
"& 	c #838588",
"* 	c #5F6163",
"= 	c #303234",
"- 	c #73777C",
"; 	c #989EA4",
"> 	c #A4AAB0",
", 	c #A7AEB4",
"' 	c #AFB5BB",
") 	c #BABFC3",
"! 	c #C2C6CB",
"~ 	c #C8CBCF",
"{ 	c #C9CDD0",
"] 	c #B7BBBE",
"^ 	c #83868A",
"/ 	c #353638",
"( 	c #75787C",
"_ 	c #A8ADB3",
": 	c #A9AFB5",
"< 	c #A4ABB1",
"[ 	c #9CA2A8",
"} 	c #878D92",
"| 	c #75797E",
"1 	c #72767B",
"2 	c #797C80",
"3 	c #898C8F",
"4 	c #A5A8AB",
"5 	c #BEC2C5",
"6 	c #C1C5CA",
"7 	c #BABFC4",
"8 	c #ABB0B6",
"9 	c #6B6F73",
"0 	c #3D3F40",
"a 	c #A0A3A7",
"b 	c #BCC1C5",
"c 	c #B4B9BE",
"d 	c #999EA3",
"e 	c #5D6064",
"f 	c #0F0F10",
"g 	c #0F1011",
"h 	c #101111",
"i 	c #121314",
"j 	c #151617",
"k 	c #171819",
"l 	c #18191A",
"m 	c #6A6D6F",
"n 	c #A1A6AB",
"o 	c #ACB2B8",
"p 	c #A8AEB4",
"q 	c #848A8F",
"r 	c #2B2D30",
"s 	c #3C3D3F",
"t 	c #B2B5B8",
"u 	c #C7CBCF",
"v 	c #BEC2C7",
"w 	c #74777A",
"x 	c #101112",
"y 	c #0F1010",
"z 	c #101011",
"A 	c #121213",
"B 	c #181A1B",
"C 	c #141516",
"D 	c #696D71",
"E 	c #A2A8AE",
"F 	c #A1A8AE",
"G 	c #8E949A",
"H 	c #2B2D2F",
"I 	c #A1A4A8",
"J 	c #C9CCD0",
"K 	c #BEC1C5",
"L 	c #6C6E71",
"M 	c #ADB1B5",
"N 	c #969A9F",
"O 	c #6E7276",
"P 	c #3E4144",
"Q 	c #111213",
"R 	c #141517",
"S 	c #17191A",
"T 	c #161718",
"U 	c #131415",
"V 	c #444749",
"W 	c #9BA0A6",
"X 	c #A3A9B0",
"Y 	c #858A8F",
"Z 	c #76797C",
"` 	c #C0C5C9",
" .	c #C1C5C9",
"..	c #57595B",
"+.	c #B3B7BB",
"@.	c #BDC2C6",
"#.	c #B1B7BC",
"$.	c #93999E",
"%.	c #2F3133",
"&.	c #17181A",
"*.	c #121313",
"=.	c #45484B",
"-.	c #343638",
";.	c #ADB2B7",
">.	c #B8BDC2",
",.	c #76787C",
"'.	c #38393A",
").	c #C3C8CC",
"!.	c #B9BEC3",
"~.	c #777B80",
"{.	c #18191B",
"].	c #161819",
"^.	c #ADB3B9",
"/.	c #AAAFB5",
"(.	c #36383A",
"_.	c #767A7E",
":.	c #ABB1B7",
"<.	c #6C7073",
"[.	c #424446",
"}.	c #707275",
"|.	c #C7CACE",
"1.	c #C8CCD0",
"2.	c #C2C6CA",
"3.	c #B5BABF",
"4.	c #93989D",
"5.	c #111112",
"6.	c #7A7E83",
"7.	c #898E93",
"8.	c #6C7074",
"9.	c #454749",
"0.	c #A0A5AA",
"a.	c #B7BCC1",
"b.	c #818588",
"c.	c #999FA5",
"d.	c #A6ACB3",
"e.	c #9AA0A5",
"f.	c #AAB0B6",
"g.	c #B0B5BB",
"h.	c #B1B6BB",
"i.	c #BEC3C7",
"j.	c #C4C8CC",
"k.	c #C6CACE",
"l.	c #ACB2B7",
"m.	c #242527",
"n.	c #898F94",
"o.	c #ABB0B7",
"p.	c #AEB4BA",
"q.	c #B2B8BD",
"r.	c #ACB1B5",
"s.	c #878A8E",
"t.	c #BDC1C6",
"u.	c #B2B6BA",
"v.	c #4D5053",
"w.	c #A3A9AF",
"x.	c #62666A",
"y.	c #414447",
"z.	c #606467",
"A.	c #B0B6BC",
"B.	c #A9ADB0",
"C.	c #C7CBCE",
"D.	c #626569",
"E.	c #161719",
"F.	c #BBC0C5",
"G.	c #898C90",
"H.	c #B8BCC0",
"I.	c #C0C4C9",
"J.	c #5B5E60",
"K.	c #6B7074",
"L.	c #9FA4AB",
"M.	c #969CA2",
"N.	c #A6ACB2",
"O.	c #A0A5AB",
"P.	c #6E7275",
"Q.	c #C5C9CD",
"R.	c #8D9195",
"S.	c #BFC4C8",
"T.	c #66686B",
"U.	c #151718",
"V.	c #9EA2A6",
"W.	c #7C7F83",
"X.	c #808489",
"Y.	c #A6ADB3",
"Z.	c #74787D",
"`.	c #292B2D",
" +	c #8A9095",
".+	c #82878C",
"++	c #2C2E30",
"@+	c #91959A",
"#+	c #BEC2C6",
"$+	c #BDC2C7",
"%+	c #191A1B",
"&+	c #828589",
"*+	c #8E9296",
"=+	c #888D92",
"-+	c #72767A",
";+	c #81868A",
">+	c #65696D",
",+	c #36393B",
"'+	c #92979B",
")+	c #B7BDC2",
"!+	c #AFB4B8",
"~+	c #808488",
"{+	c #B4BABF",
"]+	c #8E9398",
"^+	c #6F7276",
"/+	c #85898D",
"(+	c #8C9195",
"_+	c #8E9397",
":+	c #B5BAC0",
"<+	c #787B7F",
"[+	c #A3A7AC",
"}+	c #3E4143",
"|+	c #8A8E91",
"1+	c #C3C7CB",
"2+	c #6D7074",
"3+	c #8C9095",
"4+	c #A5ABB2",
"5+	c #9BA1A7",
"6+	c #434648",
"7+	c #84898E",
"8+	c #A7ADB4",
"9+	c #969CA1",
"0+	c #A9B0B6",
"a+	c #A9AFB6",
"b+	c #868B90",
"c+	c #919598",
"d+	c #888B8E",
"e+	c #353637",
"f+	c #BBBEC2",
"g+	c #616366",
"h+	c #A5ABB1",
"i+	c #B6BABF",
"j+	c #AAAFB6",
"k+	c #BBC0C4",
"l+	c #A8ADB2",
"m+	c #404345",
"n+	c #8B9096",
"o+	c #616569",
"p+	c #80858A",
"q+	c #A4AAB1",
"r+	c #7E8388",
"s+	c #808386",
"t+	c #737678",
"u+	c #C8CCCF",
"v+	c #9DA1A4",
"w+	c #141515",
"x+	c #111212",
"y+	c #9DA3A9",
"z+	c #B0B6BB",
"A+	c #A5AAB0",
"B+	c #4B4D4F",
"C+	c #3D3F41",
"D+	c #A8AFB5",
"E+	c #A1A7AD",
"F+	c #8F959A",
"G+	c #A2A9AF",
"H+	c #6A6E73",
"I+	c #606264",
"J+	c #BFC3C7",
"K+	c #96999C",
"L+	c #737679",
"M+	c #BFC3C8",
"N+	c #6F7376",
"O+	c #AEB3B9",
"P+	c #92989D",
"Q+	c #252729",
"R+	c #5B5E62",
"S+	c #A1A7AE",
"T+	c #BABDC1",
"U+	c #888C8F",
"V+	c #B2B6BB",
"W+	c #B1B6BC",
"X+	c #56595C",
"Y+	c #73767A",
"Z+	c #B6BABE",
"`+	c #424547",
" @	c #969A9D",
".@	c #B7BCC2",
"+@	c #82868A",
"@@	c #5C6064",
"#@	c #86898C",
"$@	c #A4A8AD",
"%@	c #686C70",
"&@	c #63676A",
"*@	c #414345",
"=@	c #BEC1C4",
"-@	c #4C4E50",
";@	c #AEB3B7",
">@	c #65686A",
",@	c #989EA3",
"'@	c #72777B",
")@	c #383A3C",
"!@	c #AEB3B8",
"~@	c #6A6E72",
"{@	c #0E0F10",
"]@	c #3E3F41",
"^@	c #3A3C3F",
"/@	c #B3B9BE",
"(@	c #BCC0C5",
"_@	c #1B1C1D",
":@	c #727579",
"<@	c #A9AEB4",
"[@	c #323436",
"}@	c #424548",
"|@	c #202123",
"1@	c #90959B",
"2@	c #B6BBC0",
"3@	c #525456",
"4@	c #383B3D",
"5@	c #A5AAAE",
"6@	c #B5B9BE",
"7@	c #BEC3C8",
"8@	c #9B9FA3",
"9@	c #2D2F31",
"0@	c #686C6F",
"a@	c #707377",
"b@	c #B7BBC0",
"c@	c #AAAEB2",
"d@	c #393B3C",
"e@	c #858A90",
"f@	c #A1A5AA",
"g@	c #6A6C6F",
"h@	c #5B5F62",
"i@	c #949A9F",
"j@	c #B4B9BF",
"k@	c #999DA1",
"l@	c #393A3C",
"m@	c #C1C6CA",
"n@	c #BFC3C6",
"o@	c #7B7F82",
"p@	c #74787C",
"q@	c #868C91",
"r@	c #A7ADB3",
"s@	c #717578",
"t@	c #353738",
"u@	c #828689",
"v@	c #A2A8AF",
"w@	c #73787C",
"x@	c #616365",
"y@	c #838689",
"z@	c #93979A",
"A@	c #93979B",
"B@	c #82868B",
"C@	c #4C4F52",
"                                                                ",
"                                                                ",
"                        . + @ # $ % & *                         ",
"                  = - ; > > , ' ) ! ~ { ] ^ /                   ",
"                ( _ : < [ } | 1 2 3 4 5 6 7 8 9                 ",
"            0 a b c d e f g h i j k l k m n o p q r             ",
"          s t u v w i x g y z A j l B k C i D E F G H           ",
"          I J K L M N O P f g Q R S l T U Q z V W X Y           ",
"        Z `  ...l +.@.#.p $.%.Q j l &.j *.x g y =.> p 9         ",
"      -.;.>.,.k '.{ ).!.o ~.g Q j {.].U x g f g h 9 ^./.(.      ",
"      _.:.8 <.[.}.|.1.2.3.4.y 5.j l j Q g 6.7.8.9.i 0.a.b.      ",
"      c.d.e.f.g.h.i.j.k.6 l.m.x T k U g f n.o.p.q.r.s.t.u.      ",
"    v.w.w.x.y.z.E A.>.B.C.7 D.x E.j x g Y ^.q.>.F.G.j H.I.J.    ",
"    K.w.L.F X M.N.N.O.P.@.Q.R.g k i g 7.q.!.t.S.S.T.U.V.@.W.    ",
"    X.Y.Z.`.e  +< X .+++: a.u.x j g @+>.S.#+i.$+>.%+C &+a.*+    ",
"    =+o -+Q Q ;+f.f.>+x 4.p /.,+i '+F.)+!+~+c {+g.]+^+/+A.(+    ",
"    _+:+<+U C [+>.!.}+j |+1+7 2+3+: 4+5+6+7+8+: 9+$.0+a+f.b+    ",
"    c+i.d+T e+1+k.f+l l g+c h+i+j+k+l+m+g c.F w.n+o+P p+q+r+    ",
"    s+k.4 l t+u+u+v+T w+x+y+z+! d.A+B+C C+D+< E+F+G+G+E+w.H+    ",
"    I+1.J+&.K+1+v L+i x g # M+2.y+}+U T N+{+O+P+x Q+R+S+G+.     ",
"      T+Q.U+V+!.W+X+g g z Y+j.Z+`+g Q C  @t..@+@Q 5.@@h+c.      ",
"      #@@.$@U }+%@&@f g Q *@=@-@Q g h i ;@S.S.>@U i ,@: '@      ",
"      )@!@' ~@x g {@g x i ].]@j Q g g ^@/@@.(@_@j :@q.<@[@      ",
"        O f.> }@y g x Q C &.S j Q g |@1@p.2@[+U.3@>.>.:@        ",
"          b+< c.}@g 5.U T l l C Q g f 4@%@(+5@>@6@7@8@          ",
"          9@F+G+S+0@i C ].l k C Q g f g x Q a@b@t.c@d@          ",
"            ++e@d.o f@g@&.{.k C Q x g {@h@i@g.j@k@l@            ",
"                D /.!.m@n@4 3 o@p@Z.q@5+> r@> s@                ",
"                  t@u@Z+u+u ! !.z+: q+v@; w@[@                  ",
"                        x@y@z@A@3+B@+ C@                        ",
"                                                                ",
"                                                                "};
