/* XPM */
static char * mincoin32_xpm[] = {
"32 32 424 2",
"  	c None",
". 	c #434242",
"+ 	c #747475",
"@ 	c #858686",
"# 	c #909192",
"$ 	c #959697",
"% 	c #929294",
"& 	c #838384",
"* 	c #6C6C6D",
"= 	c #606161",
"- 	c #454546",
"; 	c #646565",
"> 	c #B8B8B9",
", 	c #E8EAEB",
"' 	c #CCCFD2",
") 	c #BFC1C3",
"! 	c #B5B6B8",
"~ 	c #A9ABAD",
"{ 	c #A4A5A7",
"] 	c #9C9D9E",
"^ 	c #8C8D8E",
"/ 	c #898A8B",
"( 	c #828183",
"_ 	c #6A6A6A",
": 	c #545454",
"< 	c #434342",
"[ 	c #BABABB",
"} 	c #F7F8F9",
"| 	c #EEEFF0",
"1 	c #EDEEF0",
"2 	c #ADB0B1",
"3 	c #7A7A7B",
"4 	c #5A5B5B",
"5 	c #4A4A4A",
"6 	c #484949",
"7 	c #515151",
"8 	c #606060",
"9 	c #7A7B7B",
"0 	c #818182",
"a 	c #6F7071",
"b 	c #787878",
"c 	c #4E4E4E",
"d 	c #5B5B5B",
"e 	c #EBECED",
"f 	c #F2F2F4",
"g 	c #939393",
"h 	c #3B3B3B",
"i 	c #2F2F2F",
"j 	c #303030",
"k 	c #2C2C2C",
"l 	c #292929",
"m 	c #272727",
"n 	c #242424",
"o 	c #222222",
"p 	c #1A1A1A",
"q 	c #262626",
"r 	c #575757",
"s 	c #868687",
"t 	c #8C8D8D",
"u 	c #9D9E9E",
"v 	c #666666",
"w 	c #626262",
"x 	c #F7F7F8",
"y 	c #F1F1F3",
"z 	c #C1C2C2",
"A 	c #3E3E3E",
"B 	c #3A3A39",
"C 	c #3A3A3A",
"D 	c #373737",
"E 	c #313131",
"F 	c #2D2D2D",
"G 	c #1F1F1F",
"H 	c #1C1C1C",
"I 	c #2B2B2B",
"J 	c #858586",
"K 	c #A1A2A2",
"L 	c #AAAAAB",
"M 	c #777777",
"N 	c #4F4F4F",
"O 	c #EAEBEC",
"P 	c #A0A1A1",
"Q 	c #323232",
"R 	c #393939",
"S 	c #383838",
"T 	c #333333",
"U 	c #232323",
"V 	c #212121",
"W 	c #1D1D1D",
"X 	c #1B1B1B",
"Y 	c #202020",
"Z 	c #B2B2B3",
"` 	c #BBBBBD",
" .	c #302F2F",
"..	c #D1D1D2",
"+.	c #DBDCDD",
"@.	c #9D9D9D",
"#.	c #353535",
"$.	c #343434",
"%.	c #2A2A2A",
"&.	c #181918",
"*.	c #1E1E1E",
"=.	c #242423",
"-.	c #838383",
";.	c #BFC0C2",
">.	c #C5C5C6",
",.	c #666665",
"'.	c #8A8B8B",
").	c #D0D0D2",
"!.	c #505050",
"~.	c #B8B9BA",
"{.	c #BEBEBF",
"].	c #C1C2C3",
"^.	c #C0C1C2",
"/.	c #BCBCBD",
"(.	c #434343",
"_.	c #757575",
":.	c #8D8D8D",
"<.	c #969596",
"[.	c #9E9E9F",
"}.	c #4A4A4B",
"|.	c #B0B0B1",
"1.	c #CECFD1",
"2.	c #A7A8A9",
"3.	c #CECECF",
"4.	c #D1D2D3",
"5.	c #454545",
"6.	c #BBBBBC",
"7.	c #DEDEE0",
"8.	c #E9E9EA",
"9.	c #C9CACB",
"0.	c #313132",
"a.	c #7C7C7C",
"b.	c #A4A4A5",
"c.	c #AFB0B1",
"d.	c #BABBBC",
"e.	c #ADADAE",
"f.	c #414141",
"g.	c #D9DBDC",
"h.	c #DCDDE0",
"i.	c #646464",
"j.	c #767676",
"k.	c #BCBBBD",
"l.	c #929292",
"m.	c #B5B5B6",
"n.	c #D5D5D6",
"o.	c #DCDDDE",
"p.	c #E8EAEA",
"q.	c #F5F6F7",
"r.	c #616061",
"s.	c #252525",
"t.	c #A8A8A9",
"u.	c #B0B1B2",
"v.	c #BDBDBE",
"w.	c #C8C9C9",
"x.	c #B5B5B7",
"y.	c #9B9C9D",
"z.	c #D7D7DB",
"A.	c #9A9B9C",
"B.	c #141414",
"C.	c #A9AAAA",
"D.	c #B4B4B5",
"E.	c #494949",
"F.	c #CCCCCD",
"G.	c #D2D2D3",
"H.	c #DADADC",
"I.	c #E8E8E9",
"J.	c #CFD0D1",
"K.	c #8C8C8D",
"L.	c #CCCCCE",
"M.	c #D1D2D4",
"N.	c #B9BABB",
"O.	c #2F2F2E",
"P.	c #4C4C4D",
"Q.	c #DDDFE1",
"R.	c #D2D3D6",
"S.	c #2B2B2A",
"T.	c #B3B4B6",
"U.	c #B1B2B4",
"V.	c #535354",
"W.	c #575858",
"X.	c #545455",
"Y.	c #A6A6A7",
"Z.	c #BDBEBE",
"`.	c #C6C6C7",
" +	c #CDCDCE",
".+	c #D6D7D8",
"++	c #EDEEEF",
"@+	c #6B6C6C",
"#+	c #2E2E2E",
"$+	c #474848",
"%+	c #B8B8B8",
"&+	c #C5C6C7",
"*+	c #D0D1D3",
"=+	c #D5D7DA",
"-+	c #D7D8DB",
";+	c #C2C3C6",
">+	c #636464",
",+	c #676868",
"'+	c #606061",
")+	c #D3D5D7",
"!+	c #DBDDDF",
"~+	c #4B4B4B",
"{+	c #555556",
"]+	c #B2B4B5",
"^+	c #B4B5B7",
"/+	c #B8B9BB",
"(+	c #B9BABC",
"_+	c #B5B7B8",
":+	c #ADAEAF",
"<+	c #797979",
"[+	c #C7C7C8",
"}+	c #CECFD0",
"|+	c #A7A7A8",
"1+	c #CBCCCE",
"2+	c #DCDDDF",
"3+	c #828384",
"4+	c #D8D9DC",
"5+	c #D6D7DA",
"6+	c #D7D9DB",
"7+	c #D8D9DB",
"8+	c #CFD0D2",
"9+	c #CACCCD",
"0+	c #626263",
"a+	c #656565",
"b+	c #B4B6B9",
"c+	c #787879",
"d+	c #262625",
"e+	c #272626",
"f+	c #212020",
"g+	c #9C9C9E",
"h+	c #323132",
"i+	c #A8A9AA",
"j+	c #B3B4B5",
"k+	c #6E6E6E",
"l+	c #616262",
"m+	c #D6D8DA",
"n+	c #D7D8DA",
"o+	c #939495",
"p+	c #6B6C6D",
"q+	c #CFD0D3",
"r+	c #C9CACC",
"s+	c #ABACAD",
"t+	c #222121",
"u+	c #272726",
"v+	c #78787A",
"w+	c #C0C2C3",
"x+	c #6E6F6F",
"y+	c #6A6B6C",
"z+	c #B3B5B7",
"A+	c #B8BABB",
"B+	c #B7B8BB",
"C+	c #B6B7B9",
"D+	c #B6B8BA",
"E+	c #BEC0C2",
"F+	c #5F5F5F",
"G+	c #B8B9BC",
"H+	c #292828",
"I+	c #BCBDBF",
"J+	c #C1C3C4",
"K+	c #C2C1C3",
"L+	c #BDBEBF",
"M+	c #BBBCBE",
"N+	c #BABABC",
"O+	c #BBBCBD",
"P+	c #BCBCBE",
"Q+	c #B7B7B9",
"R+	c #717171",
"S+	c #BDBEC0",
"T+	c #979899",
"U+	c #6A6A6B",
"V+	c #676869",
"W+	c #B4B5B8",
"X+	c #C7C8CB",
"Y+	c #C0C2C4",
"Z+	c #DFE1E4",
"`+	c #F1F2F4",
" @	c #656566",
".@	c #808081",
"+@	c #5C5D5D",
"@@	c #ADAEB0",
"#@	c #AAABAD",
"$@	c #A1A2A4",
"%@	c #636364",
"&@	c #8B8C8D",
"*@	c #AFB0B2",
"=@	c #636465",
"-@	c #CBCDCF",
";@	c #B4B6B8",
">@	c #E4E6E9",
",@	c #3F3F3F",
"'@	c #F8F9FA",
")@	c #808082",
"!@	c #C5C6C9",
"~@	c #F4F4F6",
"{@	c #CACBCC",
"]@	c #5E5F5F",
"^@	c #AEAEB1",
"/@	c #949596",
"(@	c #5D5D5E",
"_@	c #D7D9DD",
":@	c #BDBEC1",
"<@	c #E5E8EA",
"[@	c #F5F7F9",
"}@	c #737474",
"|@	c #939394",
"1@	c #BDBFC1",
"2@	c #EBEDEF",
"3@	c #6D6D6D",
"4@	c #97989A",
"5@	c #E0E2E5",
"6@	c #E6E8EB",
"7@	c #353435",
"8@	c #C4C6C8",
"9@	c #EEF0F1",
"0@	c #FCFDFF",
"a@	c #7B7C7C",
"b@	c #909293",
"c@	c #B2B4B6",
"d@	c #B5B7B9",
"e@	c #3D3D3D",
"f@	c #CCCDCF",
"g@	c #C5C5C5",
"h@	c #282828",
"i@	c #2A2A29",
"j@	c #E9EBED",
"k@	c #7C7C7D",
"l@	c #C9C9CB",
"m@	c #FBFCFE",
"n@	c #3F3E3E",
"o@	c #161616",
"p@	c #767677",
"q@	c #909193",
"r@	c #B1B3B5",
"s@	c #49494A",
"t@	c #3C3C3C",
"u@	c #747575",
"v@	c #CED0D1",
"w@	c #616261",
"x@	c #B8B8BA",
"y@	c #919293",
"z@	c #F1F4F6",
"A@	c #DEDFE1",
"B@	c #363636",
"C@	c #C8C9CA",
"D@	c #EFF0F1",
"E@	c #F3F4F6",
"F@	c #959798",
"G@	c #78797A",
"H@	c #B2B2B4",
"I@	c #C4C4C4",
"J@	c #5A5A5A",
"K@	c #D6D8D9",
"L@	c #F4F6F7",
"M@	c #E2E4E5",
"N@	c #F0F1F3",
"O@	c #E6E7E9",
"P@	c #525253",
"Q@	c #6D6E6E",
"R@	c #FFFFFF",
"S@	c #F6F7F9",
"T@	c #D8DADC",
"U@	c #707071",
"V@	c #CDCDCF",
"W@	c #B6B6B6",
"X@	c #F9FAFC",
"Y@	c #F5F7F8",
"Z@	c #565656",
"`@	c #525252",
" #	c #515152",
".#	c #4F4F50",
"+#	c #535454",
"@#	c #DDDEE0",
"##	c #DADCDE",
"$#	c #EEEFF1",
"%#	c #E0E1E2",
"&#	c #191919",
"*#	c #424242",
"=#	c #E5E5E6",
"-#	c #E7E8EB",
";#	c #DDDEDF",
">#	c #C8C8C9",
",#	c #515252",
"'#	c #F0F0F0",
")#	c #F9F9FB",
"!#	c #BEBFBF",
"~#	c #444444",
"{#	c #A2A3A3",
"]#	c #9B9B9C",
"^#	c #8F9091",
"/#	c #FAFBFC",
"(#	c #FCFDFE",
"_#	c #686869",
":#	c #858585",
"<#	c #6B6A6B",
"[#	c #383939",
"}#	c #1F1F1E",
"|#	c #262525",
"1#	c #494A4A",
"2#	c #8A8B8C",
"3#	c #E4E5E6",
"4#	c #F5F6F8",
"5#	c #565757",
"6#	c #717172",
"7#	c #828283",
"8#	c #98989A",
"9#	c #969799",
"0#	c #868788",
"a#	c #7A7B7D",
"b#	c #808283",
"c#	c #C3C4C7",
"d#	c #D5D8DB",
"e#	c #E4E5E8",
"f#	c #5C5D5E",
"g#	c #959799",
"h#	c #9D9EA0",
"i#	c #AFB1B3",
"j#	c #C1C3C5",
"k#	c #B0B1B3",
"l#	c #878889",
"m#	c #4C4C4C",
"n#	c #414142",
"o#	c #4D4D4D",
"p#	c #464546",
"q#	c #2D2D2C",
"                                                                ",
"                      . + @ # $ % & * = -                       ",
"                  ; > , ' ) ! ~ { ] ^ / ( _ :                   ",
"              < [ } | 1 2 3 4 5 6 7 8 9 0 a b b c               ",
"            d 1 e f g h i j k l m n o p q r s t u v             ",
"          w x y z A B C D E F l m n o G H H I J K L M           ",
"        N O | P Q R C C S T F l q U V W X Y n V b Z ` b         ",
"       ...+.@.F #.$.$.#.S #.i %.m U Y X &.*.o =.V -.;.>.,.      ",
"      '.).` !.~.{.].^./.(.D j %.m U *.Y _.@ :.<.[.}.|.1.2.      ",
"    D 3.4.5.I 6.7.8.| 9.0.R Q I q o H p a.b.c.d.e.%.f.g.h.i.    ",
"    j.k.l.k k m.n.o.p.q.r.C $.I s.Y W R t.u.v.w.x.F E y.z.A.    ",
"  B.C.D.E.F l e.F.G.H.I.J.Q D k s.*.p K.Z ^.L.M.N.O.$.P.Q.R.S.  ",
"  R T.U.V.W.X.Y.Z.`. +.+++@+C #+n W $+%+&+*+=+-+;+>+,+'+)+!+~+  ",
"  {+]+^+/+(+_+c.:+> <+[+4.}+T E V W |+1+2+3+4+5+6+Q.!+7+8+9+0+  ",
"  a+b+c+d+e+f+g+T./+h+i+j+[+k+D U l+m+n+o+p+q+r+s+t+m u+v+w+x+  ",
"  y+z+A+B+A+C+/+D+E+D F+G+! j+i H+I+J+K+j i.L+N.M+N+O+N.P+Q+R+  ",
"  y+S+T+U+p+V+W+X+R.h k Y+Z+`+ @.@w.j+ @%.+@@@#@$@'+>+%@&@*@y+  ",
"  =@-@# j T #+;@=+>@,@R %@'@[ )@!@~@{@%.F ]@^@~ /@n l m c+#@(@  ",
"  !._@B+F #.j :@<@[@f.h T L }@|@1@2@3@D T v Z.D.4@d+%.s.o+@@6   ",
"  S.5@6@7@S T 8@9@0@f.C $.D a@b@c@d@$.e@S * f@g@K h@I i@! c@n   ",
"    T.j@k@C $.l@`+m@n@#.h@o@p@q@r@s@D t@t@u@2+v@L S.i w@x@y@H   ",
"    c+z@A@j B@C@D@E@C I *.H Q F@G@i #.R t@a@9@Q.H@F h@m.I@J@    ",
"    f.K@L@s A M@N@O@P@V p G V Q@#+E #.D R b.R@S@T@S U@V@W@o     ",
"      <+X@Y@J@c 5 (.R p X o n U m i $.#.R Z@`@ #.#+#@###:       ",
"        2.$#%#A E m G &#H U U n m #+T #.B@C t@A *#=#-#y@s.      ",
"        5.[ ;#>#*#G X p Y s.U U q k Q #.#.D R ,#'#)#!##+        ",
"          ~#{#^+]#: H p V n n n q k E $.#.#+^#/#(#{.$.          ",
"            B@_#:#<#Q@r [#}#W Y o n |#1#2#!+3#4#:.F             ",
"                f.5#6#7#8#9#0#a#b#y.c#d#T@e##@N                 ",
"                  #+e@f#3+$ 4@g#h#i#j#k#l#m#i                   ",
"                        %.#+n#~+o#p#j q#                        ",
"                                                                "};
