/* XPM */
static char * mincoin32_xpm[] = {
"32 32 467 2",
"  	c None",
". 	c #9FA0A1",
"+ 	c #A1A2A4",
"@ 	c #9B9C9E",
"# 	c #909192",
"$ 	c #8D8D8F",
"% 	c #8C8C8D",
"& 	c #818182",
"* 	c #777778",
"= 	c #B0B1B2",
"- 	c #C9CACB",
"; 	c #CFD0D2",
"> 	c #C8C9CC",
", 	c #BEBFC2",
"' 	c #B1B2B4",
") 	c #A5A6A8",
"! 	c #A0A1A3",
"~ 	c #9A9A9C",
"{ 	c #8E8F90",
"] 	c #888889",
"^ 	c #7B7B7C",
"/ 	c #717171",
"( 	c #696969",
"_ 	c #CDCDCE",
": 	c #E5E6E7",
"< 	c #EAEBED",
"[ 	c #D9DADC",
"} 	c #BABBBD",
"| 	c #9C9D9F",
"1 	c #848586",
"2 	c #757577",
"3 	c #727273",
"4 	c #747475",
"5 	c #787879",
"6 	c #7D7D7E",
"7 	c #79797A",
"8 	c #737373",
"9 	c #777777",
"0 	c #7A7A7B",
"a 	c #B2B3B4",
"b 	c #DADADC",
"c 	c #E1E2E3",
"d 	c #BBBCBC",
"e 	c #838384",
"f 	c #515151",
"g 	c #313232",
"h 	c #262626",
"i 	c #212121",
"j 	c #1F1F1F",
"k 	c #1C1C1C",
"l 	c #222222",
"m 	c #373737",
"n 	c #4E4F4F",
"o 	c #666767",
"p 	c #7B7B7B",
"q 	c #8A8A8B",
"r 	c #919191",
"s 	c #858586",
"t 	c #B6B6B7",
"u 	c #E2E2E3",
"v 	c #EAEAEC",
"w 	c #474748",
"x 	c #3A3A3A",
"y 	c #343434",
"z 	c #2C2D2D",
"A 	c #272727",
"B 	c #212122",
"C 	c #1B1B1B",
"D 	c #181818",
"E 	c #151515",
"F 	c #121212",
"G 	c #252525",
"H 	c #545454",
"I 	c #848485",
"J 	c #9D9D9D",
"K 	c #9FA0A0",
"L 	c #929292",
"M 	c #A8A9A9",
"N 	c #D9DADB",
"O 	c #E6E6E7",
"P 	c #BABBBB",
"Q 	c #616262",
"R 	c #3A3A3B",
"S 	c #3B3B3B",
"T 	c #363636",
"U 	c #2E2E2E",
"V 	c #1E1E1E",
"W 	c #171717",
"X 	c #141414",
"Y 	c #444545",
"Z 	c #868686",
"` 	c #AAAAAB",
" .	c #AEAFB0",
"..	c #9A9A9B",
"+.	c #C8C8C9",
"@.	c #B3B3B4",
"#.	c #575758",
"$.	c #3C3D3D",
"%.	c #3C3C3D",
"&.	c #3D3D3D",
"*.	c #393939",
"=.	c #303131",
"-.	c #282929",
";.	c #1A1A1A",
">.	c #161616",
",.	c #131313",
"'.	c #1D1D1D",
").	c #232323",
"!.	c #434343",
"~.	c #929393",
"{.	c #BABBBC",
"].	c #B8B8BA",
"^.	c #D0D0D2",
"/.	c #B7B7B8",
"(.	c #A5A5A6",
"_.	c #AFAFB0",
":.	c #B2B2B3",
"<.	c #B1B2B3",
"[.	c #A1A1A2",
"}.	c #555555",
"|.	c #2A2A2B",
"1.	c #2C2C2C",
"2.	c #656565",
"3.	c #7F8080",
"4.	c #878788",
"5.	c #757576",
"6.	c #ABABAD",
"7.	c #CACBCD",
"8.	c #939494",
"9.	c #C0C1C2",
"0.	c #737474",
"a.	c #636364",
"b.	c #E9EAEB",
"c.	c #EDEDEF",
"d.	c #C7C8C9",
"e.	c #4D4D4E",
"f.	c #2D2D2D",
"g.	c #242424",
"h.	c #191919",
"i.	c #7F7F7F",
"j.	c #ACADAD",
"k.	c #B7B7B9",
"l.	c #AFAFB1",
"m.	c #575757",
"n.	c #C6C7C9",
"o.	c #CCCDD0",
"p.	c #A6A6A8",
"q.	c #A3A3A3",
"r.	c #BDBDBE",
"s.	c #99999A",
"t.	c #383838",
"u.	c #515152",
"v.	c #BEBEBF",
"w.	c #D7D8D9",
"x.	c #E0E1E2",
"y.	c #DEDEE0",
"z.	c #7B7C7C",
"A.	c #303030",
"B.	c #242425",
"C.	c #4F4F4F",
"D.	c #989899",
"E.	c #ADADAE",
"F.	c #B9BABB",
"G.	c #C3C4C6",
"H.	c #B5B6B7",
"I.	c #4D4D4D",
"J.	c #3D3D3E",
"K.	c #A7A8AA",
"L.	c #D5D6D9",
"M.	c #BBBCBF",
"N.	c #A5A6A7",
"O.	c #ACACAD",
"P.	c #676767",
"Q.	c #282828",
"R.	c #CECECF",
"S.	c #D5D5D6",
"T.	c #DEDFE0",
"U.	c #E8E8E9",
"V.	c #BABABB",
"W.	c #484848",
"X.	c #ADAEAE",
"Y.	c #BCBCBE",
"Z.	c #CECFD1",
"`.	c #BBBCBE",
" +	c #4E4F50",
".+	c #313233",
"++	c #777879",
"@+	c #CDCED1",
"#+	c #88898A",
"$+	c #A9AAAC",
"%+	c #9FA0A2",
"&+	c #646465",
"*+	c #585859",
"=+	c #C1C1C2",
"-+	c #D0D0D1",
";+	c #DBDCDD",
">+	c #DBDBDC",
",+	c #818282",
"'+	c #373838",
")+	c #282829",
"!+	c #5C5C5C",
"~+	c #A8A8A9",
"{+	c #BFC0C2",
"]+	c #C9CACC",
"^+	c #D1D2D5",
"/+	c #6B6B6D",
"(+	c #78797A",
"_+	c #C2C3C6",
":+	c #CFD0D3",
"<+	c #A4A4A6",
"[+	c #949596",
"}+	c #AFB0B2",
"|+	c #ACADAF",
"1+	c #A4A5A7",
"2+	c #A3A4A5",
"3+	c #ACADAE",
"4+	c #B0B0B1",
"5+	c #CACACB",
"6+	c #D7D7D8",
"7+	c #B6B7B7",
"8+	c #4A4A4A",
"9+	c #323232",
"0+	c #969697",
"a+	c #C4C4C6",
"b+	c #B7B8BA",
"c+	c #D3D5D8",
"d+	c #C6C7CA",
"e+	c #C4C5C7",
"f+	c #C2C3C5",
"g+	c #C9CACD",
"h+	c #CBCBCE",
"i+	c #A8A9AA",
"j+	c #9A9B9C",
"k+	c #B2B3B5",
"l+	c #929394",
"m+	c #727374",
"n+	c #727274",
"o+	c #A6A7A9",
"p+	c #B0B1B3",
"q+	c #BEBFC0",
"r+	c #C3C3C4",
"s+	c #7A7A7A",
"t+	c #D2D3D6",
"u+	c #919293",
"v+	c #BEBEC1",
"w+	c #8A8B8C",
"x+	c #828384",
"y+	c #808182",
"z+	c #A0A0A2",
"A+	c #C1C1C3",
"B+	c #A5A5A7",
"C+	c #979799",
"D+	c #B4B5B7",
"E+	c #A3A4A6",
"F+	c #959698",
"G+	c #969798",
"H+	c #98999A",
"I+	c #B6B7B9",
"J+	c #ABACAE",
"K+	c #59595A",
"L+	c #B3B4B6",
"M+	c #B8B9BA",
"N+	c #444445",
"O+	c #424242",
"P+	c #A9A9AB",
"Q+	c #BDBEC0",
"R+	c #B5B6B8",
"S+	c #979899",
"T+	c #A7A8A9",
"U+	c #B9BABC",
"V+	c #9B9B9D",
"W+	c #999A9C",
"X+	c #9A9A9D",
"Y+	c #B8B9BB",
"Z+	c #C0C1C4",
"`+	c #B6B7BA",
" @	c #595A5B",
".@	c #606062",
"+@	c #BCBDBF",
"@@	c #D3D5D7",
"#@	c #D3D4D6",
"$@	c #7D7E7F",
"%@	c #BFBFC0",
"&@	c #B4B5B6",
"*@	c #8D8E8F",
"=@	c #AEAEB0",
"-@	c #AAABAC",
";@	c #969698",
">@	c #959697",
",@	c #959597",
"'@	c #A2A3A4",
")@	c #B1B1B3",
"!@	c #C4C5C8",
"~@	c #8B8C8E",
"{@	c #363637",
"]@	c #373738",
"^@	c #535455",
"/@	c #D2D3D7",
"(@	c #C7C8CC",
"_@	c #626365",
":@	c #A8A9AB",
"<@	c #E8E8EA",
"[@	c #CECED0",
"}@	c #8E8E8F",
"|@	c #E5E5E7",
"1@	c #C0C0C2",
"2@	c #5E5E5F",
"3@	c #707172",
"4@	c #AAABAD",
"5@	c #98989A",
"6@	c #2D2D2E",
"7@	c #797A7B",
"8@	c #939495",
"9@	c #A8A9AC",
"0@	c #CED0D3",
"a@	c #A0A1A4",
"b@	c #333334",
"c@	c #535355",
"d@	c #E1E2E5",
"e@	c #D6D7DA",
"f@	c #6A6A6C",
"g@	c #3B3B3C",
"h@	c #6B6C6C",
"i@	c #BDBDBF",
"j@	c #909193",
"k@	c #C1C3C5",
"l@	c #E5E6E8",
"m@	c #787878",
"n@	c #9A9B9D",
"o@	c #3C3C3C",
"p@	c #848587",
"q@	c #A9AAAB",
"r@	c #A2A3A6",
"s@	c #BDBEC1",
"t@	c #4C4C4E",
"u@	c #58585A",
"v@	c #D0D1D4",
"w@	c #EBEDEF",
"x@	c #DEDFE1",
"y@	c #6D6D6E",
"z@	c #939395",
"A@	c #B8B9BC",
"B@	c #676768",
"C@	c #353535",
"D@	c #C4C4C5",
"E@	c #A4A5A5",
"F@	c #3F3F3F",
"G@	c #848486",
"H@	c #D9DADD",
"I@	c #7B7C7E",
"J@	c #393A3A",
"K@	c #5B5B5C",
"L@	c #D5D6D8",
"M@	c #F0F1F3",
"N@	c #DFE0E2",
"O@	c #6C6C6D",
"P@	c #7B7C7D",
"Q@	c #939496",
"R@	c #AAABAE",
"S@	c #88888A",
"T@	c #3E3E3E",
"U@	c #8C8C8E",
"V@	c #D2D2D4",
"W@	c #CBCCCD",
"X@	c #434344",
"Y@	c #636363",
"Z@	c #C8C9CB",
"`@	c #E9EAED",
" #	c #434444",
".#	c #5C5C5D",
"+#	c #EFF0F2",
"@#	c #DBDBDD",
"##	c #616162",
"$#	c #474749",
"%#	c #343435",
"&#	c #979798",
"*#	c #E2E3E5",
"=#	c #474747",
"-#	c #949495",
";#	c #BCBCBC",
">#	c #9F9FA0",
",#	c #E0E1E3",
"'#	c #808181",
")#	c #686869",
"!#	c #D8D8DA",
"~#	c #E8E9EB",
"{#	c #D1D2D3",
"]#	c #666667",
"^#	c #78797B",
"/#	c #5B5C5D",
"(#	c #2C2D2E",
"_#	c #323334",
":#	c #3F3F40",
"<#	c #A7A7A8",
"[#	c #F0F1F2",
"}#	c #585959",
"|#	c #6D6E6E",
"1#	c #BCBDBE",
"2#	c #BDBDBD",
"3#	c #8D8D8D",
"4#	c #CFCFD1",
"5#	c #C9C9CB",
"6#	c #838485",
"7#	c #5E5F5F",
"8#	c #111111",
"9#	c #313132",
"0#	c #484849",
"a#	c #999999",
"b#	c #B9BABA",
"c#	c #B5B5B6",
"d#	c #A6A7A8",
"e#	c #ADAEAF",
"f#	c #DDDDDF",
"g#	c #E9E9EB",
"h#	c #4C4C4C",
"i#	c #2F2F31",
"j#	c #404040",
"k#	c #B4B4B6",
"l#	c #C8C8CA",
"m#	c #D9D9DB",
"n#	c #9D9D9E",
"o#	c #1A1A1B",
"p#	c #2E2E2F",
"q#	c #323233",
"r#	c #616161",
"s#	c #BDBEBE",
"t#	c #EFF0F1",
"u#	c #C5C6C7",
"v#	c #B6B6B8",
"w#	c #828383",
"x#	c #424243",
"y#	c #252526",
"z#	c #2C2C2D",
"A#	c #3E3E3F",
"B#	c #7C7D7D",
"C#	c #F4F5F5",
"D#	c #EBEBEC",
"E#	c #8F8F90",
"F#	c #6A6A6A",
"G#	c #535353",
"H#	c #404041",
"I#	c #48484A",
"J#	c #737475",
"K#	c #D6D6D8",
"L#	c #ECECEE",
"M#	c #666666",
"N#	c #707071",
"O#	c #636365",
"P#	c #5C5D5E",
"Q#	c #626364",
"R#	c #767678",
"S#	c #929395",
"T#	c #B3B4B7",
"U#	c #D6D6D9",
"V#	c #525252",
"W#	c #8E8F91",
"X#	c #919193",
"Y#	c #919294",
"Z#	c #BBBDBF",
"`#	c #C6C7CB",
" $	c #9E9EA0",
".$	c #6F7071",
"+$	c #7D7D7F",
"@$	c #7A7B7D",
"#$	c #8F9092",
"$$	c #98989B",
"%$	c #969799",
"                                                                ",
"                        . + @ # $ % & *                         ",
"                  = - ; > , ' ) ! ~ { ] ^ / (                   ",
"                _ : < [ } | 1 2 3 4 5 6 7 8 9 0                 ",
"            a b < c d e f g h i j k l m n o p q r s             ",
"          t u v - s w x y z A B j C D E F G H I J K L           ",
"        M N O P Q R S S T U A i V C W X F E C Y Z `  ...        ",
"        +.N @.#.$.%.%.&.*.=.-.l V ;.>.,.D '.i ).!.~.{.].        ",
"      @.^./.I (._.:.<.[.}.y |.).V ;.E 1.2.5 3.4.q 5.6.7.].      ",
"    8.9.9.0.a.- c b.c.d.e.m f.g.V h.X h i.[.j.k.l.m.4 n.o.p.    ",
"    q.r.s.t.u.v.w.x.b.y.z.x A.B.'.W X C.D.E.F.G.H.I.J.K.L.M.    ",
"    N.O.P.Q.I.t R.S.T.U.V.W.y h '.>.A & X.Y.d.Z.`. +.+++@+>     ",
"  #+$+%+&+*+P.O.=++.-+;+>+,+'+)+k >.!+~+{+]+^+L.G.++/+(+_+:+<+  ",
"  [+}+|+1+<+2+3+<.4+E.5+6+7+8+1.;.9+0+a+7.b+c+L.^+d+e+f+g+h+i+  ",
"  j+k+l+m+n+7 o+p+) * j.q+r+s+9+V 4 e+t+k+u+@+@+v+w+x+y+z+A+B+  ",
"  C+D+E+F+G+H+p+I+J+K+w+L+M+. N+O+P+]+{+5.6 Q+Q+R+j+H+S+T+U+V+  ",
"  j+U+K.W+X+| Y+Z+`+ @.@+@@@#@$@4.%@&@*@y 3 =@l.-@;@>@,@'@)@[+  ",
"  o+!@~@{@]@^@M./@(@_@J.:@<@[@}@A+|@1@2@G 3@4@$+5@O+6@6@7@4@8@  ",
"  9@0@a@b@.+c@d+d@e@f@g@h@i@0+j@k@l@E.*.1.m@&@)@n@o@l A p@q@{   ",
"  r@c+s@t@{@u@v@w@x@y@R m P.6 z@A@G.B@o@C@& D@%@E@F@g.$.S+K.G@  ",
"    t+H@I@J@K@L@M@N@O@b@G 9+P@Q@R@S@x T@&.U@V@W@_.X@Q.Y@3+p.    ",
"    Z@`@D+ #.#w.+#@#o Q.h.>.##j@~@$#%#x F@&#*#[ Y+=#C@-#;#>#    ",
"    = l@,#'#)#!#~#{#]#'.F E {@^#/#(#_#{@:#<#[#~#Z@}#|#1#2#3#    ",
"      4#+#5#6#q@q@H+7#h.8#D k &.f.|.9#%#0#a#b#c#d#P@&@Z.e#      ",
"        f#g#= h#U ).D 8#,.h.C C j )+i#b@T S F@j#m.k#x@l#        ",
"        a @#m#n#!.C ,.8#E ;.o#C V h p#q#%#t.%.r#s#t#x.i+        ",
"          O.u#v#w#x#h.F D C C C V y#z#9#b@A#B#W@C#D#F.          ",
"            E#G+Z F#G#H#U j C C V g.p#I#J#K.K#L#x.t             ",
"                F#M#y@^ $@N#O#P#Q#R#S#T#@+H@U#u#                ",
"                  V#]#$@W#X#Y#Y#W+4@Z#`#`#U+ $                  ",
"                        .$(++$@$y+#$$$%$                        ",
"                                                                "};
