/* XPM */
static char * mincoin16_xpm[] = {
"16 16 158 2",
"  	c None",
". 	c #737374",
"+ 	c #7A7B7B",
"@ 	c #757576",
"# 	c #606061",
"$ 	c #9FA0A1",
"% 	c #E8E9EB",
"& 	c #B5B6B8",
"* 	c #848586",
"= 	c #828283",
"- 	c #7A7A7B",
"; 	c #656564",
"> 	c #D2D3D4",
", 	c #BEBEBF",
"' 	c #494949",
") 	c #2D2C2C",
"! 	c #282828",
"~ 	c #232323",
"{ 	c #1B1B1B",
"] 	c #292929",
"^ 	c #747475",
"/ 	c #979898",
"( 	c #BEBFC0",
"_ 	c #949495",
": 	c #2A2A2A",
"< 	c #323232",
"[ 	c #373737",
"} 	c #2B2B2B",
"| 	c #252525",
"1 	c #1E1E1E",
"2 	c #191919",
"3 	c #1A1A1A",
"4 	c #727272",
"5 	c #B2B2B3",
"6 	c #7D7D7D",
"7 	c #AEAFB0",
"8 	c #797979",
"9 	c #D9DADA",
"0 	c #D7D8D9",
"a 	c #343434",
"b 	c #2E2E2E",
"c 	c #8C8C8D",
"d 	c #A8A8A9",
"e 	c #6D6D6E",
"f 	c #ABACAD",
"g 	c #979899",
"h 	c #A8A9A9",
"i 	c #454545",
"j 	c #6A6A6B",
"k 	c #D6D6D7",
"l 	c #EEEFF0",
"m 	c #626262",
"n 	c #313131",
"o 	c #222222",
"p 	c #3A3A3A",
"q 	c #B6B7B7",
"r 	c #CBCCCD",
"s 	c #6F6F6F",
"t 	c #4A4A4A",
"u 	c #CECFD2",
"v 	c #B8B9BB",
"w 	c #8C8D8E",
"x 	c #9B9B9C",
"y 	c #BABABB",
"z 	c #C6C7C8",
"A 	c #A0A1A1",
"B 	c #BFC0C1",
"C 	c #D9DBDF",
"D 	c #BBBCBF",
"E 	c #A5A6A8",
"F 	c #D9DBDD",
"G 	c #565657",
"H 	c #ADAEB0",
"I 	c #898A8C",
"J 	c #BCBEC0",
"K 	c #545454",
"L 	c #BDBFC0",
"M 	c #5E5F5F",
"N 	c #555656",
"O 	c #D7D9DB",
"P 	c #595A5A",
"Q 	c #CACBCC",
"R 	c #8F8F90",
"S 	c #6E6E6E",
"T 	c #5A5B5B",
"U 	c #B2B4B6",
"V 	c #464747",
"W 	c #7B7C7D",
"X 	c #DBDDE0",
"Y 	c #2E2E2D",
"Z 	c #C8C9CB",
"` 	c #A5A5A6",
" .	c #C7C7C9",
"..	c #838384",
"+.	c #3D3E3E",
"@.	c #B0B1B3",
"#.	c #6A6B6C",
"$.	c #3F3E3F",
"%.	c #9D9D9F",
"&.	c #515252",
"*.	c #DFE1E4",
"=.	c #2D2D2D",
"-.	c #777878",
";.	c #FAFCFE",
">.	c #393939",
",.	c #4F4F4F",
"'.	c #838485",
").	c #4B4B4B",
"!.	c #C7C8C9",
"~.	c #5F6060",
"{.	c #242423",
"].	c #B2B4B5",
"^.	c #C6C7C9",
"/.	c #6C6C6D",
"(.	c #7B7C7C",
"_.	c #FDFEFF",
":.	c #303030",
"<.	c #78797A",
"[.	c #686869",
"}.	c #383838",
"|.	c #545554",
"1.	c #E5E7E9",
"2.	c #696A6A",
"3.	c #575757",
"4.	c #9D9E9F",
"5.	c #7F7F7F",
"6.	c #E6E8E9",
"7.	c #6C6C6C",
"8.	c #1D1D1D",
"9.	c #353535",
"0.	c #5B5B5B",
"a.	c #ADADAE",
"b.	c #676768",
"c.	c #5E5E5E",
"d.	c #ACACAE",
"e.	c #B9BABB",
"f.	c #262626",
"g.	c #212121",
"h.	c #242424",
"i.	c #363636",
"j.	c #CDCDCE",
"k.	c #9FA0A0",
"l.	c #828384",
"m.	c #7E7E7E",
"n.	c #3C3D3D",
"o.	c #2F2F2F",
"p.	c #6E6F70",
"q.	c #E7E8E9",
"r.	c #A3A4A4",
"s.	c #3C3C3D",
"t.	c #656566",
"u.	c #98999A",
"v.	c #909193",
"w.	c #9FA1A2",
"x.	c #CBCDD0",
"y.	c #A8A9AB",
"z.	c #5A5A5B",
"A.	c #393A3A",
"            . + @ #             ",
"        $ % & * + = - ;         ",
"      > , ' ) ! ~ { ] ^ /       ",
"    ( _ : < [ } | 1 2 3 4 5     ",
"  6 7 8 9 0 a b | 2 c d e f g   ",
"  h i j k l m n o p q r s t u   ",
"  v w x y y z b 3 A B C D E F   ",
"G H e I J K L M N O P Q R S 5 T ",
"G U V W X Y Z `  ...+.@.#.$.%.&.",
"  *.=.-.;.>.,.'.u $.).!.~.{.].  ",
"  ^./.(._.:.2 <.[.}.|.1.2.3.4.  ",
"  5.6.7.4.:.8.9.} 9.0.a.b.Z c.  ",
"    d.e.f.3 g.h.: a [ i.j.k.    ",
"      l.m.n.~ 1 o o.p.q.r.      ",
"        s.t.u.v.w.x.y.z.        ",
"              [ A.              "};
