/* XPM */
static char * mincoin16_xpm[] = {
"16 16 183 2",
"  	c None",
". 	c #BBBCBE",
"+ 	c #B2B3B5",
"@ 	c #A2A3A4",
"# 	c #979899",
"$ 	c #858687",
"% 	c #757576",
"& 	c #C1C1C3",
"* 	c #E8E9EA",
"= 	c #CACBCC",
"- 	c #8B8C8E",
"; 	c #656667",
"> 	c #5E5E5F",
", 	c #666667",
"' 	c #6F7070",
") 	c #797979",
"! 	c #828282",
"~ 	c #E1E2E3",
"{ 	c #808081",
"] 	c #3A3A3A",
"^ 	c #2F2F30",
"/ 	c #242424",
"( 	c #1D1D1D",
"_ 	c #171717",
": 	c #121212",
"< 	c #505050",
"[ 	c #989899",
"} 	c #9C9D9D",
"| 	c #AFB0B1",
"1 	c #D3D3D4",
"2 	c #636364",
"3 	c #404040",
"4 	c #333434",
"5 	c #252525",
"6 	c #151515",
"7 	c #202020",
"8 	c #272727",
"9 	c #4B4C4C",
"0 	c #B3B3B5",
"a 	c #ACADAE",
"b 	c #C4C4C5",
"c 	c #727273",
"d 	c #C7C8C9",
"e 	c #E8E8EA",
"f 	c #D2D2D4",
"g 	c #393939",
"h 	c #282828",
"i 	c #1C1C1C",
"j 	c #141414",
"k 	c #888888",
"l 	c #ACADAD",
"m 	c #707071",
"n 	c #CECFD1",
"o 	c #979798",
"p 	c #A1A1A1",
"q 	c #292929",
"r 	c #B3B4B4",
"s 	c #D6D7D8",
"t 	c #E6E7E8",
"u 	c #6D6D6D",
"v 	c #2C2C2C",
"w 	c #1A1A1A",
"x 	c #444444",
"y 	c #ADADAE",
"z 	c #C5C5C7",
"A 	c #B6B7B9",
"B 	c #313132",
"C 	c #B6B7BA",
"D 	c #A0A1A2",
"E 	c #A1A2A4",
"F 	c #919293",
"G 	c #AAABAC",
"H 	c #B7B7B8",
"I 	c #CDCDCE",
"J 	c #BEBFC0",
"K 	c #333333",
"L 	c #181818",
"M 	c #9A9B9C",
"N 	c #C3C3C5",
"O 	c #D2D3D6",
"P 	c #CCCDD0",
"Q 	c #AFB0B2",
"R 	c #BFC0C2",
"S 	c #BCBDBF",
"T 	c #A8A9AB",
"U 	c #8D8E90",
"V 	c #7D7D7E",
"W 	c #A5A5A7",
"X 	c #8D8D8E",
"Y 	c #BCBCBE",
"Z 	c #636363",
"` 	c #646566",
" .	c #CDCED0",
"..	c #88898B",
"+.	c #C3C4C6",
"@.	c #B5B6B8",
"#.	c #828384",
"$.	c #939495",
"%.	c #B0B1B3",
"&.	c #B1B2B4",
"*.	c #8D8E8F",
"=.	c #777779",
"-.	c #B9BBBD",
";.	c #484849",
">.	c #D8D9DB",
",.	c #C0C1C2",
"'.	c #A8A9AA",
").	c #282829",
"!.	c #A9AAAC",
"~.	c #9F9FA1",
"{.	c #717172",
"].	c #848586",
"^.	c #A3A3A5",
"/.	c #BDBEC2",
"(.	c #8D8E91",
"_.	c #333335",
":.	c #C5C6C9",
"<.	c #D4D5D7",
"[.	c #3B3B3C",
"}.	c #929394",
"|.	c #89898A",
"1.	c #D1D2D5",
"2.	c #7F7F80",
"3.	c #9B9B9D",
"4.	c #222323",
"5.	c #727374",
"6.	c #9B9C9D",
"7.	c #BDBEC1",
"8.	c #C7C8CA",
"9.	c #3A3A3B",
"0.	c #D1D2D4",
"a.	c #DADBDD",
"b.	c #898A8C",
"c.	c #9A9B9E",
"d.	c #39393A",
"e.	c #3D3D3D",
"f.	c #AEAEAF",
"g.	c #9E9E9F",
"h.	c #969798",
"i.	c #E8E9EB",
"j.	c #CECFD0",
"k.	c #606061",
"l.	c #444445",
"m.	c #515151",
"n.	c #EDEEEF",
"o.	c #C8C9CB",
"p.	c #696A6B",
"q.	c #C1C1C2",
"r.	c #C6C7C8",
"s.	c #DEDFE1",
"t.	c #575758",
"u.	c #2B2B2B",
"v.	c #1B1B1B",
"w.	c #232324",
"x.	c #383839",
"y.	c #424343",
"z.	c #616161",
"A.	c #D6D6D8",
"B.	c #ADAEAF",
"C.	c #C0C0C1",
"D.	c #B1B2B3",
"E.	c #424242",
"F.	c #111111",
"G.	c #212121",
"H.	c #2E2E2F",
"I.	c #343434",
"J.	c #777778",
"K.	c #E9E9EA",
"L.	c #D2D2D3",
"M.	c #7C7C7D",
"N.	c #6A6A6A",
"O.	c #6A6A6B",
"P.	c #606162",
"Q.	c #4C4C4D",
"R.	c #555657",
"S.	c #828385",
"T.	c #BABBBE",
"U.	c #DBDBDE",
"V.	c #707172",
"W.	c #858587",
"X.	c #969799",
"Y.	c #ADAEB1",
"Z.	c #B1B3B5",
"          . + @ # $ %           ",
"      & * = - ; > , ' ) !       ",
"    = ~ { ] ^ / ( _ : < [ }     ",
"  | 1 2 3 3 4 5 ( 6 7 8 9 0 a   ",
"  b c d e f g h i j k l a m n   ",
"o p q r s t u v w x y z A B . C ",
"D E F G H I J K L M N O P Q R S ",
"T U V T W X Y Z `  ...+.@.#.$.%.",
"&.*.=.C -.;.>.0 ,.'.).!.~.{.].^.",
"/.(._.:.<.[.}.|.1.2.^ H 3.4.5.6.",
"7.8.9.0.a.K / b.c.d.e.0.f.q g.h.",
"  i.V <.j.8 j k.l.4 m.n.o.p.q.  ",
"  r.s.t.u.j _ v.w.B x.y.z.A.B.  ",
"    C.D.E.F.w v.G.H.I.J.K.L.    ",
"      M.N.O.P.Q.R.S.T.U.b       ",
"          V.W...X.Y.Z.          "};
