/* XPM */
static char * mincoin16_xpm[] = {
"16 16 134 2",
"  	c None",
". 	c #787D82",
"+ 	c #888D93",
"@ 	c #9CA2A7",
"# 	c #ADB1B5",
"$ 	c #A9ACAF",
"% 	c #8E9195",
"& 	c #76797B",
"* 	c #A7ACB1",
"= 	c #959AA0",
"- 	c #6A6E73",
"; 	c #525559",
"> 	c #5D5F62",
", 	c #848689",
"' 	c #A6AAAF",
") 	c #9FA5AA",
"! 	c #5F6366",
"~ 	c #75777A",
"{ 	c #C1C5C8",
"] 	c #96999D",
"^ 	c #616467",
"/ 	c #151718",
"( 	c #111112",
"_ 	c #161718",
": 	c #171819",
"< 	c #131314",
"[ 	c #696D71",
"} 	c #9EA4AA",
"| 	c #5D6165",
"1 	c #ACB0B5",
"2 	c #7C7F82",
"3 	c #8F9194",
"4 	c #BBC0C5",
"5 	c #9DA3A9",
"6 	c #101112",
"7 	c #151618",
"8 	c #0F1011",
"9 	c #A7ADB3",
"0 	c #8F9499",
"a 	c #ACB1B5",
"b 	c #C4C8CC",
"c 	c #AEB3B8",
"d 	c #101111",
"e 	c #161719",
"f 	c #121314",
"g 	c #5F6367",
"h 	c #969BA0",
"i 	c #86898D",
"j 	c #ABB0B5",
"k 	c #898D91",
"l 	c #8A8F94",
"m 	c #969BA1",
"n 	c #7F8489",
"o 	c #A9AFB5",
"p 	c #A0A4A8",
"q 	c #C0C5C9",
"r 	c #5C5F61",
"s 	c #151617",
"t 	c #414446",
"u 	c #A6ACB1",
"v 	c #BABFC4",
"w 	c #A1A4A8",
"x 	c #7F8285",
"y 	c #999EA4",
"z 	c #515558",
"A 	c #6C7074",
"B 	c #A8AEB4",
"C 	c #585C5F",
"D 	c #A4AAB0",
"E 	c #828589",
"F 	c #4A4C4E",
"G 	c #AFB4B9",
"H 	c #B0B5B9",
"I 	c #B8BDC3",
"J 	c #979B9F",
"K 	c #6B6E72",
"L 	c #A3A8AD",
"M 	c #A7ABB0",
"N 	c #5B5E60",
"O 	c #888B8F",
"P 	c #BCC0C5",
"Q 	c #17181A",
"R 	c #9DA1A5",
"S 	c #A5AAB0",
"T 	c #6D7175",
"U 	c #A4AAB1",
"V 	c #989EA3",
"W 	c #A6AAAD",
"X 	c #84878A",
"Y 	c #AAAEB1",
"Z 	c #A9ACB0",
"` 	c #131415",
" .	c #BCC1C5",
"..	c #92989E",
"+.	c #2F3132",
"@.	c #8E9297",
"#.	c #A1A7AD",
"$.	c #72767B",
"%.	c #93999F",
"&.	c #8F9295",
"*.	c #B1B5B9",
"=.	c #878A8E",
"-.	c #797D82",
";.	c #484A4C",
">.	c #AFB2B6",
",.	c #282A2B",
"'.	c #B3B8BC",
").	c #9CA0A4",
"!.	c #A1A6AC",
"~.	c #686C71",
"{.	c #313233",
"].	c #4F5255",
"^.	c #B5BBC0",
"/.	c #83868A",
"(.	c #777A7D",
"_.	c #A6ABB0",
":.	c #676B6F",
"<.	c #5C5F63",
"[.	c #8E9296",
"}.	c #B8BDC1",
"|.	c #6F7275",
"1.	c #5F6467",
"2.	c #9DA2A8",
"3.	c #A5AAAE",
"4.	c #5C5E61",
"5.	c #535659",
"6.	c #6A6E72",
"7.	c #93989E",
"8.	c #707376",
"9.	c #8C9093",
"0.	c #A8ABAE",
"a.	c #ABAFB4",
"b.	c #9CA1A7",
"c.	c #898E93",
"                                ",
"          . + @ # $ %           ",
"      & * = - ; > , ' ) !       ",
"    ~ { ] ^ / ( _ : < [ } |     ",
"    1 2 3 4 5 6 : 7 6 8 [ )     ",
"  . 9 0 a b c d e f g h i j k   ",
"  l m n o p q r s t u v w x w   ",
"  y z A B C D E F G H I J K L   ",
"  M N O P Q R ' S m T U l l V   ",
"  W X Y Z ` A  ...+.@.#.$.%.+   ",
"  &.*.=.-.8 ;.>.,.f '.).f m -.  ",
"    !.~.8 6 s {.6 ].^./.(._.    ",
"    g 5 :.f : _ 6 8 <.[.}.|.    ",
"      1.2.3., 4.5.6.7.L 8.      ",
"          9.0.a.b.c..           ",
"                                "};
