/* XPM */
static char * mincoin64_xpm[] = {
"64 64 557 2",
"  	c None",
". 	c #0C0D0E",
"+ 	c #0D0E0F",
"@ 	c #0F1011",
"# 	c #0E0F10",
"$ 	c #424548",
"% 	c #505457",
"& 	c #525558",
"* 	c #55585A",
"= 	c #595B5E",
"- 	c #47494B",
"; 	c #161718",
"> 	c #171819",
", 	c #151718",
"' 	c #0D0E0E",
") 	c #474A4C",
"! 	c #707479",
"~ 	c #888E93",
"{ 	c #9BA0A6",
"] 	c #A8AEB4",
"^ 	c #ACB2B8",
"/ 	c #AFB5BB",
"( 	c #B4BABF",
"_ 	c #B8BEC3",
": 	c #BCC1C6",
"< 	c #C1C5CA",
"[ 	c #C4C8CC",
"} 	c #B8BCBF",
"| 	c #A9ACAF",
"1 	c #8A8D90",
"2 	c #56585A",
"3 	c #141617",
"4 	c #3F4245",
"5 	c #787D81",
"6 	c #9AA0A6",
"7 	c #A4ABB1",
"8 	c #A4AAB1",
"9 	c #A5ACB2",
"0 	c #A6ADB3",
"a 	c #AAB0B6",
"b 	c #ADB3B9",
"c 	c #B6BBC0",
"d 	c #BBC0C5",
"e 	c #C0C5C9",
"f 	c #C8CBCF",
"g 	c #C9CDD0",
"h 	c #CACED1",
"i 	c #C9CCD0",
"j 	c #BABDC1",
"k 	c #909497",
"l 	c #4C4E50",
"m 	c #141516",
"n 	c #101112",
"o 	c #4F5356",
"p 	c #8C9197",
"q 	c #A5ABB1",
"r 	c #A4AAB0",
"s 	c #A3A9AF",
"t 	c #A2A9AF",
"u 	c #A3AAB0",
"v 	c #A8AEB5",
"w 	c #ABB1B7",
"x 	c #B0B6BB",
"y 	c #B5BBC0",
"z 	c #BABFC4",
"A 	c #C6CACE",
"B 	c #C8CCCF",
"C 	c #C7CACE",
"D 	c #C3C7CB",
"E 	c #BEC3C7",
"F 	c #9CA0A4",
"G 	c #111213",
"H 	c #434547",
"I 	c #90959A",
"J 	c #ABB2B8",
"K 	c #A9AFB5",
"L 	c #A7ADB3",
"M 	c #A3A9B0",
"N 	c #9BA1A7",
"O 	c #9EA3A8",
"P 	c #A0A5AA",
"Q 	c #A3A8AD",
"R 	c #ABAFB4",
"S 	c #B3B7BB",
"T 	c #C5C9CD",
"U 	c #C7CBCE",
"V 	c #C8CCD0",
"W 	c #BDC2C6",
"X 	c #B9BEC3",
"Y 	c #B5BAC0",
"Z 	c #8F9499",
"` 	c #3C3E41",
" .	c #0F0F10",
"..	c #131416",
"+.	c #7B7E82",
"@.	c #B1B7BC",
"#.	c #AFB4BA",
"$.	c #A6ACB3",
"%.	c #9FA5AB",
"&.	c #898E93",
"*.	c #6C7075",
"=.	c #4B4E51",
"-.	c #111112",
";.	c #121314",
">.	c #151617",
",.	c #1C1D1F",
"'.	c #5E5F61",
").	c #848789",
"!.	c #A8ABAF",
"~.	c #C1C5C9",
"{.	c #C2C6CB",
"].	c #BEC3C8",
"^.	c #B7BCC1",
"/.	c #B2B7BD",
"(.	c #6C7175",
"_.	c #0F1010",
":.	c #131415",
"<.	c #313234",
"[.	c #A3A6AA",
"}.	c #B8BDC2",
"|.	c #B0B6BC",
"1.	c #94999F",
"2.	c #666A6E",
"3.	c #1F2022",
"4.	c #101011",
"5.	c #161719",
"6.	c #17181A",
"7.	c #18191A",
"8.	c #2C2D2E",
"9.	c #787B7E",
"0.	c #A8ACB0",
"a.	c #B3B9BE",
"b.	c #A9AFB6",
"c.	c #A7ADB4",
"d.	c #878D92",
"e.	c #262729",
"f.	c #0B0C0D",
"g.	c #4D4F51",
"h.	c #B4B8BC",
"i.	c #BFC4C8",
"j.	c #BCC0C5",
"k.	c #9CA1A7",
"l.	c #585B5F",
"m.	c #101111",
"n.	c #18191B",
"o.	c #17191A",
"p.	c #5F6264",
"q.	c #9FA4A9",
"r.	c #AEB4BA",
"s.	c #A7AEB4",
"t.	c #A6ACB2",
"u.	c #959BA1",
"v.	c #3B3D40",
"w.	c #0D0D0E",
"x.	c #505253",
"y.	c #BDC0C4",
"z.	c #C7CBCF",
"A.	c #C2C7CB",
"B.	c #BDC2C7",
"C.	c #B5BABF",
"D.	c #75797C",
"E.	c #181A1B",
"F.	c #6F7376",
"G.	c #A2A8AF",
"H.	c #999FA5",
"I.	c #3C3F41",
"J.	c #BDC1C5",
"K.	c #CACDD1",
"L.	c #ADB1B5",
"M.	c #494B4D",
"N.	c #121213",
"O.	c #949A9F",
"P.	c #9A9FA6",
"Q.	c #0C0C0D",
"R.	c #303233",
"S.	c #B6B9BD",
"T.	c #A3A7AA",
"U.	c #B5B9BE",
"V.	c #969A9E",
"W.	c #75787C",
"X.	c #121313",
"Y.	c #222325",
"Z.	c #868B90",
"`.	c #949AA0",
" +	c #242628",
".+	c #A1A4A7",
"++	c #252628",
"@+	c #A4A8AC",
"#+	c #C0C4C9",
"$+	c #A7ACB1",
"%+	c #8B9094",
"&+	c #696D71",
"*+	c #3D3F42",
"=+	c #0E0E0F",
"-+	c #82878C",
";+	c #898F94",
">+	c #7B7E81",
",+	c #A5A8AB",
"'+	c #8C8F92",
")+	c #C2C6CA",
"!+	c #BEC2C7",
"~+	c #B3B8BE",
"{+	c #ADB3B8",
"]+	c #A5ABB2",
"^+	c #989EA4",
"/+	c #83888D",
"(+	c #36393B",
"_+	c #878C91",
":+	c #6C7074",
"<+	c #424446",
"[+	c #B0B4B8",
"}+	c #2E2F30",
"|+	c #ABAEB1",
"1+	c #8F949A",
"2+	c #353739",
"3+	c #232426",
"4+	c #969BA1",
"5+	c #A9AFB4",
"6+	c #404245",
"7+	c #94999D",
"8+	c #B6BCC1",
"9+	c #B9BEC2",
"0+	c #4B4D4F",
"a+	c #C4C7CB",
"b+	c #BBBFC4",
"c+	c #A0A6AD",
"d+	c #AAB0B7",
"e+	c #93989C",
"f+	c #535659",
"g+	c #B1B6BC",
"h+	c #B4B9BF",
"i+	c #787C7F",
"j+	c #646668",
"k+	c #A9B0B6",
"l+	c #323436",
"m+	c #707478",
"n+	c #585B5E",
"o+	c #91969B",
"p+	c #151618",
"q+	c #8C8E91",
"r+	c #AEB3B9",
"s+	c #666A6D",
"t+	c #161819",
"u+	c #63676B",
"v+	c #6A6E72",
"w+	c #A1A6AA",
"x+	c #9B9FA4",
"y+	c #AAB1B7",
"z+	c #A3A8AE",
"A+	c #6C7073",
"B+	c #3E4143",
"C+	c #A4A7AB",
"D+	c #C3C8CC",
"E+	c #C6C9CD",
"F+	c #C1C6CA",
"G+	c #BBC0C4",
"H+	c #ADB2B8",
"I+	c #858A90",
"J+	c #4D5053",
"K+	c #A1A6AC",
"L+	c #8A8F94",
"M+	c #717579",
"N+	c #45484A",
"O+	c #131414",
"P+	c #5F6265",
"Q+	c #7B7F84",
"R+	c #AFB5BA",
"S+	c #B6BBC1",
"T+	c #A9AEB3",
"U+	c #B6BBBF",
"V+	c #282A2C",
"W+	c #ADB2B7",
"X+	c #A7ACB0",
"Y+	c #BCC1C5",
"Z+	c #BDC1C6",
"`+	c #8D9194",
" @	c #9AA0A5",
".@	c #8E9399",
"+@	c #B0B5BB",
"@@	c #B9BDC3",
"#@	c #C9CDD1",
"$@	c #434649",
"%@	c #141517",
"&@	c #1D1F20",
"*@	c #8B9096",
"=@	c #B4B8BD",
"-@	c #8E9296",
";@	c #777A7D",
">@	c #BFC3C8",
",@	c #B5B9BD",
"'@	c #46494C",
")@	c #A2A8AE",
"!@	c #1F2122",
"~@	c #777B7F",
"{@	c #A6ABB1",
"]@	c #C5C8CD",
"^@	c #BBBFC5",
"/@	c #73777B",
"(@	c #B2B8BD",
"_@	c #46484B",
":@	c #2A2B2C",
"<@	c #585B5D",
"[@	c #73777C",
"}@	c #90969C",
"|@	c #7A7F84",
"1@	c #5B5F63",
"2@	c #27292A",
"3@	c #8E9499",
"4@	c #515455",
"5@	c #969BA0",
"6@	c #878C92",
"7@	c #878B8E",
"8@	c #888D92",
"9@	c #A1A8AE",
"0@	c #A1A7AE",
"a@	c #92979D",
"b@	c #787D82",
"c@	c #A0A6AC",
"d@	c #A8AFB5",
"e@	c #A1A6AB",
"f@	c #A9ADB1",
"g@	c #111212",
"h@	c #979A9E",
"i@	c #818487",
"j@	c #A0A4A8",
"k@	c #8F959A",
"l@	c #9EA4AA",
"m@	c #A0A7AD",
"n@	c #84898E",
"o@	c #808489",
"p@	c #B4B9BE",
"q@	c #737678",
"r@	c #B0B4B9",
"s@	c #4B4F52",
"t@	c #72767B",
"u@	c #8B9095",
"v@	c #9CA2A9",
"w@	c #616569",
"x@	c #54585B",
"y@	c #8D9094",
"z@	c #8C9195",
"A@	c #404143",
"B@	c #424447",
"C@	c #91969C",
"D@	c #2F3234",
"E@	c #B0B3B7",
"F@	c #93979B",
"G@	c #C0C4C8",
"H@	c #A5A9AD",
"I@	c #ADB2B6",
"J@	c #ABB0B5",
"K@	c #4A4C4F",
"L@	c #54575A",
"M@	c #9A9FA5",
"N@	c #898E94",
"O@	c #313335",
"P@	c #979B9F",
"Q@	c #7D8083",
"R@	c #B7BDC2",
"S@	c #727579",
"T@	c #404345",
"U@	c #A4A9AE",
"V@	c #575A5C",
"W@	c #6B6F73",
"X@	c #5F6366",
"Y@	c #909499",
"Z@	c #B1B7BD",
"`@	c #797D81",
" #	c #8C9196",
".#	c #6D7175",
"+#	c #505357",
"@#	c #55585B",
"##	c #7E8286",
"$#	c #696D70",
"%#	c #BABEC4",
"&#	c #969A9D",
"*#	c #2F3133",
"=#	c #ACB1B8",
"-#	c #4E5255",
";#	c #5A5C5F",
">#	c #A8ADB2",
",#	c #9EA2A6",
"'#	c #3B3D3F",
")#	c #B9BDC0",
"!#	c #A0A5AB",
"~#	c #868A8F",
"{#	c #6E7377",
"]#	c #616568",
"^#	c #47494C",
"/#	c #72777B",
"(#	c #4C4E51",
"_#	c #B5B9BC",
":#	c #96999C",
"<#	c #B7BCC2",
"[#	c #ABB1B8",
"}#	c #999CA0",
"|#	c #71757A",
"1#	c #7D8287",
"2#	c #8A9095",
"3#	c #2E3032",
"4#	c #707579",
"5#	c #1A1B1D",
"6#	c #5E6063",
"7#	c #9B9EA1",
"8#	c #7C8084",
"9#	c #959BA0",
"0#	c #7C8186",
"a#	c #5F6266",
"b#	c #2D3032",
"c#	c #C4C9CD",
"d#	c #C6C9CE",
"e#	c #5D5F61",
"f#	c #8D9093",
"g#	c #77797C",
"h#	c #1F2021",
"i#	c #898C90",
"j#	c #969CA1",
"k#	c #969CA2",
"l#	c #A5A9AC",
"m#	c #86898B",
"n#	c #AAADB1",
"o#	c #C4C8CD",
"p#	c #3E3F41",
"q#	c #7F8488",
"r#	c #676A6E",
"s#	c #6F7478",
"t#	c #888D93",
"u#	c #9CA2A8",
"v#	c #8D8F92",
"w#	c #C1C5C8",
"x#	c #AFB3B7",
"y#	c #898D92",
"z#	c #B2B8BE",
"A#	c #474A4D",
"B#	c #6E7277",
"C#	c #70757A",
"D#	c #C4C8CB",
"E#	c #2D2E30",
"F#	c #6A6D6F",
"G#	c #8C9094",
"H#	c #434548",
"I#	c #A9AEB2",
"J#	c #696C70",
"K#	c #1E2021",
"L#	c #45484B",
"M#	c #C6CACD",
"N#	c #868B8F",
"O#	c #37383A",
"P#	c #94979B",
"Q#	c #ACAFB3",
"R#	c #737679",
"S#	c #94989C",
"T#	c #6F7377",
"U#	c #94989B",
"V#	c #93969A",
"W#	c #121415",
"X#	c #707376",
"Y#	c #AAAFB4",
"Z#	c #959AA0",
"`#	c #505255",
" $	c #616467",
".$	c #131516",
"+$	c #3A3C3E",
"@$	c #35373A",
"#$	c #717376",
"$$	c #9DA1A3",
"%$	c #8F9397",
"&$	c #575B5E",
"*$	c #404346",
"=$	c #A1A5A9",
"-$	c #A2A7AC",
";$	c #343739",
">$	c #A0A3A5",
",$	c #74777A",
"'$	c #9DA2A7",
")$	c #8B9196",
"!$	c #5A5D5F",
"~$	c #7F8183",
"{$	c #303234",
"]$	c #B8BDC3",
"^$	c #424346",
"/$	c #74777B",
"($	c #505356",
"_$	c #95999E",
":$	c #B2B7BB",
"<$	c #B3B8BD",
"[$	c #8F9399",
"}$	c #222426",
"|$	c #3B3E40",
"1$	c #90969B",
"2$	c #2A2B2D",
"3$	c #A9ADB2",
"4$	c #BABFC3",
"5$	c #404244",
"6$	c #858B90",
"7$	c #131314",
"8$	c #3F4244",
"9$	c #9DA0A4",
"0$	c #777A7E",
"a$	c #81868B",
"b$	c #9DA2A8",
"c$	c #9DA1A5",
"d$	c #2B2C2E",
"e$	c #242527",
"f$	c #858A8F",
"g$	c #222425",
"h$	c #343638",
"i$	c #8D9195",
"j$	c #A8ADB1",
"k$	c #6D7073",
"l$	c #9C9FA3",
"m$	c #2F3132",
"n$	c #989EA5",
"o$	c #93999F",
"p$	c #45474A",
"q$	c #A6ABAF",
"r$	c #101212",
"s$	c #3C3F42",
"t$	c #999FA6",
"u$	c #6E7276",
"v$	c #B0B5BA",
"w$	c #56595D",
"x$	c #999EA4",
"y$	c #ADB1B6",
"z$	c #4A4C4E",
"A$	c #252729",
"B$	c #A7ABB0",
"C$	c #191A1B",
"D$	c #65696D",
"E$	c #93989E",
"F$	c #9CA0A5",
"G$	c #2D2F30",
"H$	c #A8ACAF",
"I$	c #494D50",
"J$	c #9EA5AB",
"K$	c #ACB2B7",
"L$	c #B2B6BB",
"M$	c #AAAFB3",
"N$	c #A3A8AC",
"O$	c #8F9498",
"P$	c #9BA0A4",
"Q$	c #8D9297",
"R$	c #515457",
"S$	c #909396",
"T$	c #BABEC2",
"U$	c #414447",
"V$	c #595B5D",
"W$	c #8E9093",
"X$	c #A6A9AC",
"Y$	c #B8BBBF",
"Z$	c #BABEC3",
"`$	c #71767A",
" %	c #484B4E",
".%	c #595C5F",
"+%	c #545659",
"@%	c #515558",
"#%	c #434648",
"                                                                                                                                ",
"                                                                                                                                ",
"                                                                                                                                ",
"                                                                                                                                ",
"                                                  . + @ # $ % & * = - ; > , ;                                                   ",
"                                            ' # ) ! ~ { ] ^ / ( _ : < [ } | 1 2 > 3                                             ",
"                                      ' # 4 5 6 7 7 8 9 0 a b / c d e [ f g h i j k l m n                                       ",
"                                    n o p 9 q r s t t u q v w x y z e [ A i i B C D E F * G                                     ",
"                                G H I J K L q u s M M q L N O P Q R S T U V i C [ e W X Y Z `  .                                ",
"                              ..+.x @.#.w L $.8 %.&.*.=.G -.G ;.m >.; ,.'.).!.~.{.].z ^./.x ] (._.                              ",
"                          :.<.[.d }.Y |.b a 1.2.3.@ @ @ 4.n G ;.:.>.5.6.7.7.7.8.9.0.}.a.#.w b.c.d.e.f.                          ",
"                        >.g.h.{.i.j.^.a.k.l.n m.@  . .@ 4.-.G ;.m >.> 7.7.n.o.> ; >.p.q.r.a s.t.r u.v.w.                        ",
"                      >.x.y.z.T A.B.C.D.G G n m.@ @ _.@ @ n G ;.m >.> 7.E.n.7.> >.m ;.G F.r L 8 s G.H.I.w.                      ",
"                    :.g.J.i K.z.[ L.M.m :.N.G n @ @  ._.@ n G ;.m , > 7.E.7.o.; >.:.;.G n 4 O.r s s G.P.I.Q.                    ",
"                    R.S.B h g f T.9.U.V.W.H N.n 4.@ _. .@ n -.;.m , > o.7.o.> ; m :.X.G n @ Y.Z.s M M u `. +                    ",
"                  >.[.T U i i .+, ++@+#+z Y $+%+&+*+@  .@ 4.-.;.m ; 6.E.n.o.; >.:.;.G n n @ _.=+-+s u q 8 ;+@                   ",
"                ;.>+e D A C ,+7.7.7.'+)+!+X ~+{+K ]+^+/+(+m.G ;.m ; o.n.n.o.; m ;.G -.m.@ @ @ # + _+0 7 t.L :+ .                ",
"                <+c : e < [+}+7.7.n.|+A )+d c |.a t.q 1+2+@ n ;.m ; 7.7.7.> >.:.;.G n @ @  .@ _.@ 3+4+L v K 5+6+                ",
"              G 7+8+X d 9+0+> 6.7.; a+f [ #+b+a.r.K c+=+# @ n X.m 5.7.7.o.; m ;.G n @ @  . ._.@ @ 4.6+L d+^ r.e+G               ",
"            + f+g+a.h+^.i+>.; > > j+V B z.[ E z @.k+7 l+_.@ n ;.m 5.7.E.6.>.:.N.n m.@ @ @  .@ m.n n n m+x x g+~+n+n             ",
"            @ o+b / x P ;.m 3 p+> q+z.g B z.D W ( r+K s+_.@ n G m t+7.o.t+m ;.G m.@ u+Z.v+6+@ n -.G G G w+h+Y c x+:.            ",
"            $ k+K y+b b z+%+A+B+>.C+D+z.g K.E+F+G+y H+I+ . .4.G m t+7.7.p+:.G n @  .J+t.]+$.K+L+M+N+;.O+P+}.}.X d l             ",
"          + Q+9 L ] d+K b #.R+S+T+U+i.{.A z.z.C {.d g+%._.# @ N.3 6.7.t+m ;.n @ _. .V+t.c.a ^ b / h+W+V.D.X+d Y+Z+`+:.          ",
"           . @u q $.Z..@s a ^ / +@Y @@!+~.[ C #@C ].S+w $@ .@ G %@> 7.; :.G m._._.&@*@c.w b / ~+~+^.X =@-@;@E E >@,@>.          ",
"          '@8 s M )@!@@ # J+~@I {@/ ~+^.X E [.g f ]@^@@./@@ @ G >.7.> m X.m.@ _.7.*@] y+/ (@( ^.}.z B._@, :@Y+i.i.#+<@          ",
"        ' [@s u M r }@|@1@2@@ @ 3@a H+b /.}.4@A.z.A [ d 5@@ @ G >.o.5.;.n @ @ > 6@k+/ g+a.}.X d W Z+[+; ; ; [.#+i.#+7@:.        ",
"        + 8@t s u r s 9@0@r a@b@c@c.] d@w e@:.f@E A K.)+x ; _.g@, o.3 G @  .:.L+{+#.y ^.X : E >@i.E h@; ; ; i@i.].>@j@:.        ",
"        @ ^+8 t r k@l@m@0@8 G.t u 0 8 t.$.n@G o@p@>@T C ~.P+_.-.> 7.:.m._.' 8@|.Y S+Y+i.i.E ~.i.< i.q@; p+p+= E : j.r@m         ",
"        @ t.]+7 0 G + s@t@u@v@q M r u 7 q w@m.x@w /.b+D T y@4.n 5.>.@ @ # z@@.^.B.W >@D F+E e i.E ].A@>.3 >.7.d }.X X :.        ",
"        B@0 L L N m.@ @ 4.m.+ C@L 9 r u q D@@ + %.] ^ / i.E@;.4.; ;.@ # F@z B.E < e G@H@E : Z+d z I@m m m m m J@( ^.c K@        ",
"        L@K w d+k.n n n n n # r K 9 ] ]+M@4.@ @ N@t.u 7 ^ ~+O@n m @ n P@B.e E : d b+Q@k ^.R@y ^.( $+S@T@:.:.:.U@(@@.g+V@        ",
"        f+r+#.b  @G G G G G f+b R+^ g+^ /+G n -.W@a w ] q 0@X@;.;.:.Y@X c 8+8+Z@Z@`@;.Q /./ / g+/ #.|.^ z+ #.#e@/ b r.+#        ",
"        @#/.~+|.P ;.;.;.;.:.##h+S+h+}.( $#m :.m T@%#!+E >@Y+&#G ;.8@t 9 7 q L d@/@n *#b w K a w K a w ] d@k+a ^ w K =#-#        ",
"        ;#C.c 8+>#m m m m m ,#Y+B.d ].].'#; > > 7.)#B A F+b !#; ~#z R+a 9@]+)@{#@ @ ]#0 ]+t.q L 6 ^#/#u@c@] 0 K K L ] %         ",
"        (#X d : r@>.; , ; %@9+)+[ [ T _#7.7.n.E.E.:#i.<#[#t g+}#L b ].z +@] |#@ @ # 1#r G.0@r 8 2#3#@ 4.@ '@4#)@]+L $.6+        ",
"        >.>@e #+D 5#5.> > 6#T z.z.V g 7#n.7.6.> ; s+r.K 7 L j.< L L c E : 8#G n m.@ 9#r 9@m@M G.M u O.0#a#b#G q M M u  .        ",
"        t+,@[ c#d#e#6.o.7.f#f V #@i V g#6.5.; m :.h#G.9@q /.T #+K 0@b X i#; m ;.G *#] ]+t u s M t s s s c+r j#s M s k#_.        ",
"        p+l#A f U m#7.n.7.n#V z.z.A o#p#>.m :.N.g@@ p r w z U !+] c+u q#>.; >.>.:.r#w k+]+9 9 H.s#t#u#s G.s G.)@)@M I++         ",
"        >.v#U K.B | 7.7.5.w#A D+[ #+x#m :.;.G n @ @ 4#a ( )+z.j.] G.5 g@:.>.; ; 3 y#z#r.y+w v n@4.@ _.A#B#&.c+)@G.s C#w.        ",
"          e#f g f D#E#6.F#[ )+#+: z G#;.G -.n @ @ @ H#b d A z.: w b@ .n G m >.; , I#z h+Z@/ w J#n n 4.@ @ K#%.G.M s L#          ",
"          7.y.V C A >+j@W >@j.z Y ~+$#G n @ @ @  .m.G J@E M#T j.N#@ # @ g@;.m >.O##+B.X }.a.Z@v.G n n n n s+7 u q ^+#           ",
"          >.P#[ T A.Q#R#S#J@^.( g+^ T#n @ @  ._.m.n ;.U#T V [ V#G @ _._.m.G W#3 X#i.E !+d X Y#:.;.G G -.n Z#L ]+0 b@+           ",
"            `#< F+!+!+ $.$:.+$J#_+{ t.@$_._._.@ n N.:.#$C #@$$>.X.n @ @ m.-.;.m %$!+>@#+E : F@:.:.;.;.G &$a ] ] t.*$            ",
"            >.=$Y+b+}.-$G ;.G -.n m.;$@ _.# @ m.g@;.m R.M#>$6.>.;.n @ @ @ n G O+U@z >@>@< i.,$m m :.:.N.'$^ a w )$@             ",
"            G !$}.S+/.Z@m+-.-.n m.@ @ #  .@ @ n G :.>.> ~$7.5.m ;.n @ _.@ n g@{$~+]$d #+< i.^$>.>.m m /$/./ r.b ($+             ",
"              ;._$/./ ^ t.6+m.@ @ @ _. ._.@ n G ;.m ; 7.7.7.t+m ;.n 4.@ @ @ m.u++@( z W E :$; , , >._@<$Y (@(@[$-.              ",
"                T@a H+v v `.}$@ @  ._.@ @ 4.g@X.:.>.5.o.7.6.; m ;.-.@  ._._.|$1$b p@^.X : h@; ; ; 2$3$4$<#S+x 5$                ",
"                @ {#] d@7 7 6$+  .@  .@ n -.G ;.m ; 6.7.7.o.; m 7$g@m.@ # 8$7 c.w / ~+S+d Q@; ; ; 9$E d z X 0$G                 ",
"                  n *@9 t.t q /+=+ .@ @ n G ;.:.%@; o.n.7.6.; m ;.g@@ @ # _.O@w@a$b$Z@h+^.c$d$m }##+>@B.W c$..                  ",
"                    e$k#8 r )@M f$g$@ n n G ;.m p+> 7.7.o.> >.m ;.n 4.@ #  ._.@ n G h$J#i$j$k$l$>@i.>@#+x#m$                    ",
"                    Q.` n$)@u 0@u o$6+n G ;.:.m ; 6.7.7.o.> >.:.;.G m.@  ._.@ @ m.n G ;.:.p$q$: E !+>@U+M.r$                    ",
"                      w.s$t$t r t L s u$-.;.m p+; > o.7.7.> >.m ;.g@n @ @ _. .@ 4.n G -.m+v$<#z G+!+U.g.:.                      ",
"                        ' |$`.8 $.]+w b O P+>.; 6.7.n.7.6.; >.:.;.G n @ @ _._.@ @ n w$x$R+(@( 8+d y$z$:.                        ",
"                          f.A$;+$.v w r.h+}.B$9.8.7.n.C$7.5.p+m ;.G n m.@ _. .!@D$E$c.K b R+x c F$G$G                           ",
"                              @ :+t.b /.Y X >@D ~.H$).e#,.; >.:.;.G n G I$:+8@J$r 7 L d@K ^ K$0$:.                              ",
"                                # v.Z a.^.: #+[ z.g g B T L$M$N$q.b$u#$.8 M s 7 r 7 8 $.w O$8$n                                 ",
"                                    G @#P$B.)+T z.B g z.o#F+: ^.(@#.w s.9 7 s )@0@r $.Q$R$n                                     ",
"                                      n m g.S$T$z.V f E+D #+z c @.b K 9 s t s r 6 |@U$_.'                                       ",
"                                            >.> V$W$X$Y$D #+Z$S+/.b w c.6 &.`$ %# +                                             ",
"                                                  , ; > ; l .%+%& @%#%_.@ =+w.                                                  ",
"                                                                                                                                ",
"                                                                                                                                ",
"                                                                                                                                ",
"                                                                                                                                "};
