<?xml version="1.0" standalone="no"?>
<!DOCTYPE svg PUBLIC "-//W3C//DTD SVG 20010904//EN"
 "http://www.w3.org/TR/2001/REC-SVG-20010904/DTD/svg10.dtd">
<svg version="1.0" xmlns="http://www.w3.org/2000/svg"
 width="1024.000000pt" height="1024.000000pt" viewBox="0 0 1024.000000 1024.000000"
 preserveAspectRatio="xMidYMid meet">
<metadata>
Created by potrace 1.15, written by Peter Selinger 2001-2017
</metadata>
<g transform="translate(0.000000,1024.000000) scale(0.100000,-0.100000)"
fill="#000000" stroke="none">
<path d="M0 5120 l0 -5120 5120 0 5120 0 0 5120 0 5120 -5120 0 -5120 0 0
-5120z m5590 4506 c169 -20 303 -41 435 -65 45 -9 273 -66 365 -92 19 -6 49
-14 65 -19 166 -46 499 -183 711 -290 436 -223 789 -474 1145 -818 120 -115
319 -332 374 -407 16 -22 35 -46 43 -54 7 -8 32 -39 54 -70 23 -31 58 -79 79
-107 22 -28 39 -54 39 -57 0 -4 15 -28 34 -54 108 -152 291 -510 392 -769 161
-412 249 -779 305 -1264 16 -139 17 -710 1 -865 -38 -367 -133 -787 -248
-1095 -20 -52 -47 -124 -60 -160 -14 -36 -40 -97 -59 -137 -19 -40 -44 -96
-57 -125 -12 -29 -34 -73 -48 -98 -14 -25 -34 -63 -44 -85 -48 -105 -288 -479
-388 -606 -15 -19 -40 -50 -55 -70 -222 -290 -532 -592 -854 -830 -143 -106
-388 -269 -404 -269 -3 0 -28 -15 -57 -34 -65 -40 -440 -224 -523 -255 -33
-13 -82 -32 -110 -43 -50 -21 -265 -93 -320 -108 -16 -5 -61 -17 -100 -28 -38
-11 -106 -28 -150 -37 -44 -10 -98 -21 -120 -26 -296 -64 -668 -95 -1030 -86
-211 6 -518 33 -640 57 -351 69 -443 93 -666 169 -177 61 -399 155 -523 224
-92 50 -197 97 -217 97 -10 0 -19 4 -19 9 0 5 -44 33 -97 62 -207 111 -496
311 -694 479 -70 59 -413 400 -470 466 -38 44 -148 182 -203 254 -29 38 -117
166 -236 345 -15 22 -46 76 -70 120 -23 44 -48 87 -54 95 -7 8 -17 26 -23 40
-6 14 -37 79 -69 145 -31 66 -61 129 -65 140 -4 11 -15 38 -24 59 -44 100 -75
180 -75 195 0 10 -4 21 -9 26 -31 35 -162 514 -191 695 -67 432 -73 500 -73
835 -1 290 3 344 39 630 95 740 409 1498 872 2105 328 430 723 796 1162 1078
69 44 141 89 160 100 19 11 64 36 99 56 213 122 647 307 856 366 17 5 46 13
65 19 315 89 526 128 893 166 173 18 682 13 857 -9z"/>
<path d="M4890 8984 c-538 -36 -1007 -160 -1475 -389 -322 -158 -545 -303
-815 -529 -116 -98 -349 -331 -444 -446 -43 -52 -86 -104 -96 -116 -82 -98
-269 -380 -345 -519 -80 -146 -160 -315 -202 -425 -14 -36 -29 -74 -34 -85
-15 -34 -56 -156 -79 -235 -12 -41 -26 -85 -31 -98 -5 -13 -9 -32 -9 -42 0
-20 11 -20 499 -20 391 0 500 3 504 13 2 6 2 246 0 532 -5 565 -6 575 -61 628
-15 14 -57 40 -95 57 l-67 30 0 43 c0 23 4 48 8 55 7 10 194 12 903 10 l894
-3 0 -55 0 -55 -46 -22 c-90 -43 -125 -121 -100 -227 10 -41 136 -295 281
-561 15 -27 62 -117 105 -200 43 -82 94 -181 115 -220 61 -115 194 -369 365
-700 49 -93 102 -195 118 -225 16 -30 81 -156 144 -280 126 -246 170 -323 185
-318 6 2 44 69 85 148 41 80 92 174 113 210 21 36 57 101 80 145 52 99 110
205 167 309 23 43 43 80 43 82 0 1 15 29 33 61 19 32 54 96 79 143 39 73 242
448 329 608 49 88 84 153 129 237 24 44 88 163 143 265 133 243 167 322 167
385 0 28 -6 61 -13 75 -15 30 -72 69 -110 77 -31 6 -47 29 -47 67 0 59 -50 56
898 54 l867 -3 3 -52 3 -52 -78 -38 c-83 -41 -115 -75 -133 -143 -6 -24 -9
-231 -8 -556 l3 -519 503 -3 c435 -2 502 0 502 12 0 44 -88 309 -164 496 -122
298 -343 677 -530 907 -241 297 -464 515 -736 719 -244 184 -534 350 -806 464
-54 23 -108 46 -119 51 -69 32 -428 140 -540 163 -188 38 -306 58 -417 71
-126 15 -550 27 -668 19z"/>
<path d="M3296 5959 c-3 -8 -7 -657 -9 -1444 -5 -1553 -7 -1485 50 -1553 15
-18 57 -48 93 -66 54 -27 66 -37 68 -60 2 -16 0 -32 -5 -36 -10 -10 -1269 -24
-1305 -15 -25 6 -28 12 -28 46 0 29 5 41 18 46 106 37 164 89 187 168 13 47
14 158 8 939 -3 488 -10 889 -14 891 -5 4 -973 8 -1106 5 -24 0 -9 -227 26
-400 5 -25 15 -81 22 -125 37 -250 200 -736 325 -970 9 -16 35 -66 57 -110 45
-88 155 -272 193 -322 13 -17 24 -35 24 -38 0 -4 39 -59 88 -122 48 -63 97
-129 109 -146 117 -161 429 -463 678 -657 135 -105 130 -101 321 -228 181
-121 300 -184 454 -242 47 -18 119 -45 160 -61 41 -16 89 -29 107 -29 17 0 33
-4 35 -10 9 -29 491 -147 728 -179 209 -27 269 -31 522 -31 341 0 451 11 778
77 216 43 391 93 585 164 143 52 454 193 505 228 14 10 55 34 92 54 391 213
849 617 1158 1023 192 251 357 542 497 874 27 63 55 135 63 160 7 25 30 97 51
160 21 63 45 149 54 190 9 41 23 102 31 135 42 180 77 442 72 545 l-3 65 -550
2 c-313 2 -556 -1 -564 -6 -12 -8 -14 -147 -15 -923 l-1 -913 22 -45 c23 -45
89 -98 143 -115 38 -12 50 -25 50 -56 0 -22 -6 -32 -25 -39 -31 -12 -1375 -13
-1393 -1 -8 5 -12 23 -10 47 3 33 7 40 34 47 44 13 124 76 148 117 21 34 21
48 24 870 4 928 -6 2100 -18 2100 -4 0 -41 -60 -83 -132 -106 -188 -105 -186
-209 -368 -52 -91 -105 -185 -119 -210 -24 -42 -166 -290 -212 -370 -11 -19
-31 -55 -45 -80 -14 -25 -55 -99 -93 -165 -37 -66 -114 -203 -172 -305 -142
-253 -486 -852 -554 -965 -16 -27 -56 -97 -88 -155 -32 -58 -76 -134 -98 -170
-22 -36 -53 -90 -69 -120 -16 -30 -35 -63 -43 -74 -16 -21 -42 -16 -52 11 -4
10 -20 41 -36 68 -16 28 -46 82 -65 120 -20 39 -43 81 -53 95 -9 14 -39 68
-66 120 -28 52 -94 176 -147 275 -53 99 -104 195 -113 214 -10 18 -26 36 -35
39 -12 3 -18 14 -18 33 0 15 -14 52 -31 81 -18 29 -46 80 -64 113 -18 33 -64
116 -102 185 -70 125 -86 155 -225 415 -41 77 -94 176 -118 220 -24 44 -59
109 -78 145 -172 323 -217 407 -297 555 -127 235 -186 345 -202 376 -19 38
-41 55 -47 38z"/>
<path d="M1265 5610 c-4 -6 -12 -67 -18 -136 -9 -102 -9 -127 2 -133 20 -12
1064 -13 1096 -1 l26 10 -3 132 -3 133 -547 3 c-368 1 -549 -1 -553 -8z"/>
<path d="M7860 5480 l0 -140 88 0 c95 -1 1021 -1 1036 0 10 0 0 200 -13 246
l-7 29 -552 3 -552 2 0 -140z"/>
</g>
</svg>
